<svg xmlns="http://www.w3.org/2000/svg" xml:space="preserve" width="1.70666in" height="1.70666in" version="1.1" style="shape-rendering:geometricPrecision; text-rendering:geometricPrecision; image-rendering:optimizeQuality; fill-rule:evenodd; clip-rule:evenodd" viewBox="0 0 1707 1707" xmlns:xlink="http://www.w3.org/1999/xlink">
 <defs>
  <style type="text/css">
   
    .fil2 {fill:#2B4D66}
    .fil3 {fill:#5C7587}
    .fil5 {fill:#87C5FE}
    .fil0 {fill:#C3D5EF}
    .fil1 {fill:#DF5A49}
    .fil4 {fill:#DFDFDF}
   
  </style>
 </defs>
 <g id="Layer_x0020_1">
  <metadata id="CorelCorpID_0Corel-Layer"></metadata>
  <path class="fil0" d="M1341 1249c-14,0 -24,-10 -24,-23l0 -463c0,-13 10,-24 24,-24 13,0 23,11 23,24l0 464c0,13 -10,22 -23,22z" id="id_237"></path>
  <path class="fil1" d="M1527 1466c-30,0 -374,1 -375,1 -14,0 -25,-11 -25,-24l0 -431c0,-13 11,-25 25,-25l375 0c14,0 25,12 25,25l0 431c0,12 -11,23 -25,23z" id="id_238" style="fill: rgb(49, 104, 133);"></path>
  <path class="fil2" d="M249 823c-11,0 -20,-7 -23,-18l-35 -131c-2,-5 -2,-11 2,-17 3,-5 8,-9 15,-10l451 -121c10,-2 22,3 26,12l306 -81c-2,-11 6,-22 16,-26l89 -24c-5,-47 -4,-97 4,-150 5,-44 15,-110 78,-127l86 -23c62,-15 100,32 132,70 102,126 143,279 122,457 -4,35 -11,109 -80,126l-84 23c-8,3 -16,4 -23,4 2,0 0,0 0,0 -49,0 -82,-38 -108,-74 -32,-42 -57,-85 -77,-130l-90 24c-11,4 -23,-3 -27,-14l-306 82c2,12 -6,23 -17,26l-451 120c-1,2 -4,2 -6,2z" id="id_239"></path>
  <path class="fil2" d="M1023 1468l-331 0c-7,0 -14,-3 -18,-8 -4,-6 -6,-11 -5,-18l54 -588c3,-33 7,-79 15,-125 2,-14 14,-21 26,-19 9,2 15,7 18,14l153 0c3,-7 10,-12 17,-12 13,-3 25,6 26,18 8,46 12,93 15,126l1 8 53 580c0,6 -1,13 -6,17 -4,4 -11,7 -18,7z" id="id_240"></path>
  <path class="fil3" d="M732 765c2,-12 4,-24 6,-36 2,-14 14,-21 26,-19 9,2 15,7 18,14l153 0c3,-7 10,-12 17,-12 13,-3 25,6 26,18 2,12 4,24 6,35 -36,25 -79,40 -126,40 -47,0 -90,-15 -126,-40z" id="id_241"></path>
  <path class="fil4" d="M722 867l1 -13c1,-14 3,-30 4,-47l1 0 129 124 131 -126c2,18 4,36 5,51l1 8 0 0 -121 117c-4,4 -10,7 -16,7 -5,0 -12,-3 -16,-7l-119 -114z" id="id_242"></path>
  <path class="fil4" d="M696 1153l6 -71 138 -134c4,-4 11,-7 16,-7 7,0 12,3 16,7l143 138 6 72 -165 -160 -160 155z" id="id_243"></path>
  <path class="fil4" d="M695 1159l6 -59 156 151 159 -154 5 60 -148 144c-4,4 -10,7 -16,7 -5,0 -12,-3 -16,-7l-146 -142z" id="id_244"></path>
  <path class="fil4" d="M1023 1468l-9 0 -157 -151 -156 151 -9 0c-7,0 -14,-3 -18,-8 -4,-6 -6,-11 -5,-18l1 -10 172 -165c10,-10 23,-10 32,0l172 165 1 12c0,6 -1,13 -6,17 -4,4 -11,7 -18,7z" id="id_245"></path>
  <path class="fil0" d="M328 1247c-13,0 -24,-11 -24,-24l0 -444c0,-13 11,-24 24,-24 13,0 24,11 24,24l0 445c-1,12 -12,23 -24,23z" id="id_246"></path>
  <path class="fil1" d="M392 1468l-127 0c-14,0 -24,-11 -24,-24l0 -220c0,-13 10,-23 24,-23l127 0c13,0 23,10 23,23l0 221c-1,12 -12,23 -23,23z" id="id_247"></path>
  <path class="fil2" d="M857 783c-119,0 -217,-97 -217,-217 0,-119 97,-217 217,-217 119,0 217,97 217,217 0,120 -97,217 -217,217z" id="id_248"></path>
  <path class="fil0" d="M690 705c-31,-37 -50,-86 -50,-139 0,-12 1,-24 3,-35l-435 116c-7,1 -12,5 -15,10 -4,6 -4,12 -2,17l35 131c3,11 12,18 23,18 2,0 5,0 6,-2 118,-31 258,-68 435,-116z" id="id_249"></path>
  <path class="fil0" d="M1023 427c32,38 51,86 51,139 0,13 -1,25 -4,37l76 -20 -49 -174 -3 -1 -71 19z" id="id_250"></path>
  <path class="fil5" d="M1341 1397c-62,0 -114,-52 -114,-114 0,-33 38,-105 79,-183 6,-11 11,-20 14,-27 4,-8 13,-13 22,-13 10,0 18,5 23,13 4,9 11,21 18,35 40,76 73,143 73,175 -3,62 -53,114 -115,114z" id="id_251" style="fill: rgb(123, 220, 242);"></path>
  <path class="fil2" d="M1613 1603l-1519 0c-52,0 -93,-41 -93,-93 0,-51 41,-92 93,-92l1519 0c51,0 93,41 93,92 0,52 -42,93 -93,93z" id="id_252" style="fill: rgb(163, 124, 56);"></path>
  <path class="fil0" d="M856 676c-61,0 -109,-50 -109,-110 0,-60 49,-110 109,-110 61,0 111,50 111,110 0,60 -48,110 -111,110z" id="id_253"></path>
 </g>
</svg>