<svg version="1.1" id="Layer_1" xmlns="http://www.w3.org/2000/svg" xmlns:xlink="http://www.w3.org/1999/xlink" x="0px" y="0px" viewBox="0 0 256.81 233.4892" enable-background="new 0 0 256.81 233.4892" xml:space="preserve">
<g>
	<path d="M5.1927,212.5444c-3.8115,5.7549-2.2354,13.5117,3.5205,17.3232c2.123,1.4062,4.5195,2.0791,6.8896,2.0791
		c4.0527,0,8.0283-1.9678,10.4336-5.5996c14.014-21.1609,18.4387-40.5747,18.5067-56.5762l-29.5643-23.9723
		C20.742,160.1516,24.1848,183.8657,5.1927,212.5444z" id="id_101" style="fill: rgb(20, 18, 19);"></path>
	<path d="M45.7931,27.2611c-2.386,12.1967,5.5671,24.0156,17.7617,26.4012c12.1965,2.3859,24.0142-5.5653,26.4002-17.762
		c2.3856-12.1945-5.5643-24.015-17.7607-26.4009C59.9996,7.1139,48.1787,15.0666,45.7931,27.2611z" id="id_102" style="fill: rgb(28, 22, 24);"></path>
	<path d="M220.0596,106.8148l-0.7002,0.1974c-1.1802,0.3328-1.8735,1.5706-1.5408,2.7507c0.3329,1.1801,1.5707,1.8734,2.7507,1.5406
		l18.2781-5.1541c1.1802-0.3328,1.8735-1.5706,1.5408-2.7507c-0.3328-1.1801-1.5707-1.8734-2.7507-1.5406l-0.8823,0.2488
		c-1.1014-1.7864-2.0078-3.6257-2.8717-5.5305c-0.1788-0.3809-0.5424-1.2949-0.714-1.6738
		c-1.1511-3.4045-3.5219-6.3944-6.6064-8.0966c-2.4458-1.4283-5.3086-1.939-8.1112-1.8389
		c-6.4189-0.0508-12.8379-0.0605-19.257-0.2402c-8.6221-0.1995-17.2891-0.5082-25.9263-1.0545v-21.541h-5.7249V50.7369h-8.7886
		V19.6223c2.9775-0.8661,5.1556-3.61,5.1556-6.8671c0-3.9521-3.2039-7.1559-7.156-7.1559c-0.641,0-1.2592,0.0922-1.8503,0.2503
		c-7.7302-4.4612-16.5497-7.0104-25.6965-5.3281c-10.8945,1.8978-19.0988,11.2391-23.3885,20.709
		c-2.1685,4.5908-3.8435,9.6656-4.2347,15.0144c-1.5786,15.5927,9.6952,28.4479,14.2363,40.9199
		c2.8638,7.6371,1.6503,15.0615-1.7635,21.9328L80.554,87.9751L56.3245,60.1264c-0.343-0.3942-0.7182-0.7433-1.1151-1.0536
		c-0.5217-0.5103-1.0776-0.9897-1.7096-1.3945c-7.4095-4.744-20.6168-4.3074-30.0678,7.9579
		C10.5369,82.5761,4.9534,94.5526,0.3037,116.4288c-0.6517,4.8582-0.2161,8.7133,0.9398,11.8148
		c0.611,2.5941,2.04,5.0164,4.2677,6.8273l4.6055,3.7437l40.6064,33.0078l16.3965,51.7676
		c1.6875,5.3262,6.6094,8.7295,11.9141,8.729c1.25,0,2.5225-0.1895,3.7773-0.5869c6.5811-2.0845,10.2266-9.1099,8.1426-15.6909
		l-17.5264-55.3335c-0.7373-2.3262-2.1387-4.3862-4.0322-5.9253l-35.1003-28.5321l0.0045-0.0024
		c1.6757-6.4102,4.2993-12.816,7.2721-18.9344l-9.1435-27.5742c-0.8652-2.6113-0.6621-5.4033,0.5723-7.8623
		s3.3516-4.29,5.9639-5.1562c1.0518-0.3477,2.1416-0.5234,3.2402-0.5234c4.4482,0,8.3779,2.8369,9.7773,7.0596l3.3505,10.1044
		l14.5881,16.7673c0.9404,1.0811,2.1543,1.8896,3.5146,2.3418l31.6833,10.5187c-1.7167,2.6224-3.3723,5.287-4.9394,8.0359
		l2.545,0.7584c1.8206,0.5421,3.4114,1.5605,4.6578,2.9302c1.7697-3.1144,3.7317-6.1418,5.7161-9.1202
		c0.6693,0.174,1.3417,0.2833,2.0071,0.2833c3.3535,0,6.4775-2.125,7.5918-5.4814c0.9031-2.7213,0.257-5.5778-1.4491-7.6324
		c7.2267-14.1077,5.0457-25.7978-3.7358-41.6036c-4.4739-8.1332-7.5263-15.4448-7.1313-23.2549
		c0.3953,0.074,0.8017,0.1172,1.2185,0.1172c0.3317,0,0.6551-0.0325,0.9736-0.0798l14.3487,21.4193
		c2.3506,3.5098,6.2764,5.6055,10.501,5.6055h2.8189v13.0184h-3.6697v38.3119h3.6697v15.8532h5.7248v81.4128h-5.7248v12.8807
		H123.397v6.6055h66.7156v-6.6055h-16.844v-12.8807h-5.7249v-81.4128h5.7249V99.7029c7.035-0.4362,14.0836-0.7063,21.1129-0.9418
		c8.3688-0.2236,24.9121,0.0185,24.9258,0.1025C219.7337,101.5059,220.0432,104.1312,220.0596,106.8148z M131.9065,56.0219
		l-14.4539-21.576c0.4657-0.9033,0.7333-1.9255,0.7333-3.0118c0-2.7931-1.7413-5.1743-4.1951-6.1324
		c0.0142-0.0276,0.0266-0.0547,0.041-0.0823c8.1887-16.9245,21.3462-19.1418,35.7853-10.7382
		c0.6133,2.4715,2.5052,4.4339,4.938,5.1413v31.1144h-8.7893v8.2294h-8.5437C135.2034,58.9663,133.1409,57.8657,131.9065,56.0219z" id="id_103" style="fill: rgb(38, 32, 33);"></path>
	<path d="M96.8429,141.5254l-4.2249-1.2589c-1.9823,14.2491,6.8243,23.724,18.8123,36.4637c1.4174,2.3433,3.9823,3.915,6.9208,3.915
		c4.4689,0,8.0917-3.6228,8.0917-8.0918s-3.6228-8.0918-8.0917-8.0918c-1.534,0-2.963,0.4347-4.1852,1.176
		c-1.3173-1.3049-2.6138-2.6135-3.8596-3.9319c-5.4481-5.7549-10.22-11.938-9.3954-19.8204
		c-0.3717,0.0416-0.7462,0.0707-1.1257,0.0707C98.7931,141.956,97.8028,141.8115,96.8429,141.5254z" id="id_104" style="fill: rgb(26, 24, 24);"></path>
	<path d="M102.0665,123.9872l-39.5986-11.7988l-12.6689-38.208c-1.3906-4.1934-5.917-6.4629-10.1113-5.0762
		c-4.1943,1.3906-6.4668,5.918-5.0762,10.1113l13.9814,42.166c0.8232,2.4805,2.8047,4.4033,5.3096,5.1494l43.5957,12.9902
		c0.7617,0.2266,1.5312,0.335,2.2871,0.335c3.4473,0,6.6289-2.2451,7.6641-5.7178
		C108.711,129.704,106.3009,125.2489,102.0665,123.9872z" id="id_105" style="fill: rgb(26, 23, 23);"></path>
	<path d="M252.3181,206.1917l1.7146-19.4059c1.1577-0.1233,2.0707-1.0985,2.0707-2.2875c0-1.2716-1.0404-2.3119-2.3119-2.3119
		h-43.3762c-1.2715,0-2.3119,1.0403-2.3119,2.3119c0,1.189,0.913,2.1642,2.0707,2.2875l3.8313,43.3607
		c0.1672,1.8918,1.7518,3.3427,3.651,3.3427h28.894c1.8993,0,3.4838-1.4508,3.651-3.3427l1.1321-12.8126l-23.6477-27.9937
		c-0.7129-0.8438-0.6074-2.1064,0.2363-2.8184c0.8447-0.7129,2.1055-0.6074,2.8184,0.2363l22.8889,27.0952
		c0.3484,0.2554,0.7633,0.3882,1.1814,0.3882c0.4561,0,0.9141-0.1553,1.29-0.4717c0.8438-0.7129,0.9492-1.9756,0.2373-2.8193
		L252.3181,206.1917z" id="id_106" style="fill: rgb(34, 195, 227);"></path>
	<path d="M221.9134,155.104c0,2.0527,1.6699,3.7227,3.7227,3.7227c2.0518,0,3.7217-1.6699,3.7217-3.7227
		c0-1.6504-2.8525-40.1426-2.9736-41.7803h-1.4961C224.7669,114.9614,221.9134,153.4536,221.9134,155.104z M227.8577,155.104
		c0,1.2256-0.9971,2.2227-2.2217,2.2227c-1.2256,0-2.2227-0.9971-2.2227-2.2227c0-1.0068,1.208-17.7158,2.2227-31.5312
		C226.6507,137.3882,227.8577,154.0971,227.8577,155.104z" id="id_107" style="fill: rgb(29, 205, 240);"></path>
	<path d="M234.7952,110.2583c-0.1211,2.3926-2.9736,58.6172-2.9736,60.2588c0,2.0527,1.6699,3.7227,3.7227,3.7227
		c2.0518,0,3.7217-1.6699,3.7217-3.7227c0-1.6416-2.8516-57.8662-2.9727-60.2588H234.7952z M235.5442,172.7397
		c-1.2256,0-2.2227-0.9971-2.2227-2.2227c0-1.083,1.3418-27.8916,2.2227-45.3604c0.8799,17.4688,2.2217,44.2773,2.2217,45.3604
		C237.7659,171.7426,236.7688,172.7397,235.5442,172.7397z" id="id_108" style="fill: rgb(37, 198, 230);"></path>
</g>
</svg>