<svg xmlns="http://www.w3.org/2000/svg" xml:space="preserve" width="1.70666in" height="1.70666in" version="1.1" style="shape-rendering:geometricPrecision; text-rendering:geometricPrecision; image-rendering:optimizeQuality; fill-rule:evenodd; clip-rule:evenodd" viewBox="0 0 1706.66 1706.66" xmlns:xlink="http://www.w3.org/1999/xlink" xmlns:xodm="http://www.corel.com/coreldraw/odm/2003">
 <defs>
  <style type="text/css">
   
    .fil0 {fill:black}
    .fil3 {fill:#66C2E4}
    .fil1 {fill:#76C8EA}
    .fil2 {fill:#835931}
    .fil4 {fill:#89CFF0}
   
  </style>
 </defs>
 <g id="Layer_x0020_1">
  <metadata id="CorelCorpID_0Corel-Layer"></metadata>
  <path class="fil0" d="M1684.76 1706.54l-1662.87 0c-11.04,0 -20,-8.97 -20,-20l0 -1666.43c0,-14.82 15.66,-24.5 28.91,-17.9l132.18 65.85 146.85 -43.34c7.31,-2.14 15.22,0.02 20.37,5.63l116.43 126.55c17.83,19.37 -11.6,46.48 -29.43,27.09l-108 -117.38 -142.45 42.02c-4.86,1.42 -10.07,0.97 -14.58,-1.28l-110.29 -54.96 0 1614.14 1622.87 0 0 -1614.13 -110.28 54.96c-4.53,2.25 -9.76,2.7 -14.58,1.27l-142.45 -42.04 -107.98 117.39c-17.85,19.37 -47.25,-7.72 -29.43,-27.09l116.43 -126.55c5.15,-5.61 13.07,-7.82 20.37,-5.64l146.84 43.34 132.17 -65.85c13.25,-6.59 28.93,3.09 28.93,17.9l0 1666.43c-0,11.04 -8.97,20 -20.02,20z" id="id_119"></path>
  <path class="fil0" d="M431.92 1161.69c-11.04,0 -20,-8.97 -20,-20l0 -971.24c0,-11.04 8.96,-20 20,-20l842.83 0c11.04,0 20,8.96 20,20l0 928.83c0,26.33 -40,26.31 -40,0l0 -908.83 -802.84 0 0 951.24c0,11.04 -8.96,20 -20,20z" id="id_120"></path>
  <path class="fil0" d="M209.57 1354.58c-11.04,0 -20,-8.97 -20,-20 0,-97.07 106.31,-288.54 243.37,-216.48 25.93,-11.2 59.92,-12.21 92.87,-10.71 12.15,-157 207.37,-214.12 307.15,-107.97 53.74,-119.25 222.07,-126.4 284,-10.22 100.2,-17.48 192.03,64.8 185.07,166.66 36.89,32.24 75.57,113.76 35.37,119.45 -36.34,5.15 -8.37,-49.43 -68.44,-94.83 -22.52,-17.02 17.34,-68.47 -47.25,-124.5 -69.92,-60.64 -120.42,-1.04 -134.56,-36.23 -45.03,-112.05 -209.11,-90.84 -226.63,26.39 -2.77,18.56 -27.52,23.39 -37.04,7.12 -72.06,-123.13 -263.33,-68.55 -258.14,74.55 1.54,42.45 -76.8,1.78 -122.4,30.01 -24.74,15.31 -48.4,-39.27 -112.01,-3.8 -60.94,33.98 -101.36,131.18 -101.36,180.56 0,11.05 -8.95,20.02 -19.99,20.02z" id="id_121"></path>
  <path class="fil0" d="M1118.96 634.91c-11.04,0 -20,-8.96 -20,-20l0.01 -444.45c0,-26.32 39.99,-26.32 39.99,0l0 444.45c-0,11.04 -8.96,20 -20,20z" id="id_122"></path>
  <path class="fil0" d="M853.33 513.41c-11.04,0 -20,-8.96 -20,-20l0 -322.95c0,-26.33 40,-26.33 40,0l0 322.96c0,11.05 -8.96,19.99 -20,19.99z" id="id_123"></path>
  <path class="fil0" d="M627.94 513.41c-11.04,0 -20,-8.96 -20,-20l0 -322.95c0,-26.33 39.99,-26.33 39.99,0l0 322.96c-0.02,11.05 -8.95,19.99 -20,19.99z" id="id_124"></path>
  <path class="fil0" d="M734.23 667.81c-11.04,0 -20,-8.96 -20,-20l0 -134.15c0,-26.33 40,-26.33 40,0l0 134.15c0,11.05 -8.94,20 -20,20z" id="id_125"></path>
  <path class="fil0" d="M977.21 747.53c-11.04,0 -20,-8.96 -20,-20l0 -134.15c0,-26.32 40,-26.32 40,0l0 134.15c0,11.05 -8.95,20 -20,20z" id="id_126"></path>
  <path class="fil0" d="M531.76 762.72c-11.04,0 -20,-8.96 -20,-20l0 -134.15c0,-26.33 39.99,-26.33 39.99,0l0 134.15c0,11.06 -8.95,20 -20,20z" id="id_127"></path>
  <path class="fil0" d="M1389.25 793.34c-15.96,0 -25.91,-18.58 -16.04,-31.91l85.25 -114.9 -57.7 -298.51c-2,-10.3 4.33,-20.4 14.46,-23.12l145.94 -39.09c25.46,-6.81 35.76,31.84 10.36,38.65l-127.95 34.28 55.84 288.86c1.06,5.5 -0.24,11.21 -3.59,15.7l-90.5 121.97c-3.92,5.3 -9.96,8.09 -16.07,8.09z" id="id_128"></path>
  <path class="fil0" d="M1570.26 856.3c-7.39,0 -14.51,-4.13 -17.97,-11.22l-90.5 -184.92c-11.59,-23.66 24.35,-41.22 35.91,-17.57l90.5 184.92c6.56,13.39 -3.39,28.79 -17.94,28.79z" id="id_129"></path>
  <path class="fil0" d="M288.54 846.17c-6.17,0 -12.26,-2.85 -16.18,-8.22l-120.7 -165.71c-2.49,-3.42 -3.83,-7.54 -3.83,-11.78l0 -291.8 -131.1 -35.12c-25.43,-6.82 -15.09,-45.45 10.34,-38.65l145.92 39.09c8.75,2.35 14.82,10.26 14.82,19.31l0 300.64 116.87 160.45c9.7,13.33 -0.26,31.79 -16.13,31.79z" id="id_130"></path>
  <path class="fil0" d="M112.69 793.09c-14.52,0 -24.5,-15.4 -17.95,-28.79l55.11 -112.63c11.57,-23.68 47.48,-6.06 35.93,17.57l-55.11 112.63c-3.48,7.1 -10.57,11.22 -17.97,11.22z" id="id_131"></path>
  <path class="fil0" d="M203.21 1354.72c-78.09,0 -96.57,-58.62 -182.76,-64.87 -26.15,-1.9 -23.51,-41.57 2.89,-39.9 154.14,9.72 102.04,144.94 363.85,-8.69 2.08,-1.22 4.39,-2.06 6.78,-2.47 205.63,-35.19 229.63,167.91 429.17,19.74 2.39,-1.78 5.16,-3 8.08,-3.57 210.85,-40.83 135.96,158.14 428.81,-13.7 2.08,-1.22 4.39,-2.06 6.78,-2.47 196.01,-33.57 231.98,147.22 407.19,35.49 22.18,-14.14 43.7,19.58 21.48,33.74 -114.76,73.07 -183.13,39.11 -249.17,6.28 -47.43,-23.58 -96.41,-47.97 -169.28,-36.66 -175.87,102.52 -233.65,83.42 -301.44,42.54 -33.16,-20 -64.52,-38.94 -132.39,-26.78 -130.81,95.11 -202.33,57.99 -271.49,22.1 -46.57,-24.17 -94.71,-49.15 -167.52,-37.86 -97.4,56.85 -156.68,77.1 -200.97,77.1z" id="id_132"></path>
  <path class="fil0" d="M691.59 1536.16c-46.2,0.02 -83.37,-19.29 -119.89,-38.24 -46.56,-24.17 -94.61,-49.11 -167.52,-37.86 -189.54,110.39 -248.38,75.28 -305.29,41.33 -23.46,-14.01 -45.65,-27.24 -78.76,-30.3 -31.29,-2.87 -36.53,-85.11 99.26,-4.04 51.55,30.78 96.09,57.35 267.81,-43.38 2.08,-1.22 4.39,-2.06 6.78,-2.47 206.04,-35.34 228.85,167.97 429.15,19.73 2.41,-1.78 5.17,-3 8.1,-3.57 210.94,-40.85 135.88,158.22 428.81,-13.7 2.08,-1.22 4.39,-2.06 6.78,-2.47 196,-33.59 231.97,147.22 407.19,35.49 22.18,-14.14 43.69,19.58 21.48,33.73 -114.76,73.07 -183.13,39.12 -249.17,6.28 -47.44,-23.58 -96.42,-47.98 -169.28,-36.66 -175.91,102.54 -233.67,83.41 -301.44,42.54 -33.18,-20.02 -64.53,-38.97 -132.39,-26.79 -61.75,44.98 -110.3,60.41 -151.61,60.41z" id="id_133"></path>
  <path class="fil1" d="M653.73 952.45c56.57,-16.36 129.01,-6.47 179.24,46.96 53.74,-119.24 222.07,-126.39 284,-10.22 49.77,-8.68 100.94,7 137.78,42.85l0 -841.59 -115.8 0 0 424.45c-0,26.33 -40,26.33 -40,0l0.01 -424.45 -225.64 0 0 302.96c0,26.33 -40,26.31 -40,-0l0 -302.96 -185.39 0 0 302.96c-0.02,26.33 -39.99,26.31 -39.99,-0l0 -302.96 -156.03 0 0 921.46c22.47,-5.35 48.5,-5.69 73.9,-4.53 5.72,-73.94 54.12,-133.52 127.91,-154.94zm323.48 -379.07c11.03,0 20,8.96 20,20l0 134.15c0,26.34 -40,26.31 -40,0l0 -134.15c0,-11.04 8.97,-20 20,-20zm-222.98 -59.72l0 134.15c0,26.34 -40,26.31 -40,0l0 -134.15c0,-26.33 40,-26.32 40,0zm-202.47 94.91l0 134.15c0,26.34 -39.99,26.31 -39.99,0l0 -134.15c0,-26.32 39.99,-26.32 39.99,0z" id="id_134" style="fill: rgb(23, 200, 235);"></path>
  <path class="fil2" d="M1294.75 178.27l0 918.1c6.13,18.94 8.68,39.09 7.29,59.48 24.79,21.66 41.96,50.04 49.56,81.83 125.35,19.39 174.66,125 313.17,42.29l0 -1227.55 -110.28 54.96c-4.53,2.25 -9.76,2.7 -14.58,1.27l-142.45 -42.04 -102.7 111.65zm78.46 583.16l85.25 -114.9 -57.7 -298.51c-2,-10.3 4.33,-20.4 14.46,-23.12l145.94 -39.09c25.46,-6.81 35.76,31.84 10.36,38.65l-127.95 34.28 55.36 286.38 89.28 182.41c11.63,23.74 -24.36,41.22 -35.91,17.57l-76.06 -155.4 -70.91 95.57c-15.52,20.93 -47.92,-2.47 -32.11,-23.83z" id="id_135" style="fill: rgb(186, 203, 207);"></path>
  <path class="fil2" d="M411.93 1109.03l0 -930.76 -102.71 -111.63 -142.45 42.02c-4.86,1.42 -10.07,0.97 -14.58,-1.28l-110.29 -54.96 0 246.45 131.09 35.12c8.75,2.35 14.82,10.26 14.82,19.31l0 300.64 116.87 160.45c15.61,21.45 -16.95,44.65 -32.31,23.57l-101.17 -138.9 -40.53 82.82c-11.58,23.66 -47.52,6.14 -35.93,-17.57l53.09 -108.48 0 -287.17 -105.93 -28.37 0 911.76c77.31,11.93 99.06,55.85 149.19,61.68 12.72,-94.55 101.77,-244.99 220.84,-204.69z" id="id_136" style="fill: rgb(182, 200, 204);"></path>
  <path class="fil3" d="M664.88 990.85c-47.67,13.82 -102.33,57.99 -99.54,136.95 0.43,11.87 -9.52,21.35 -21.31,20.65 -107.9,-6.4 -93.52,13.24 -112.1,13.24 -14.94,0 -45.54,-38.6 -100.99,-7.69 -52.37,29.2 -89.58,105.09 -99.02,157.19 70.02,-14.46 149.18,-70.19 162.06,-72.41 205.5,-35.27 229.56,167.93 429.17,19.74 2.39,-1.78 5.16,-3 8.08,-3.57 210.91,-40.72 136.22,158.14 428.81,-13.7 8.41,-4.94 40.48,-6.32 49.02,-6.46 -18.79,-52.48 -51.18,-49.41 -47.84,-73.07 12.13,-86 -68.46,-153.63 -149.96,-130.22 -9.98,2.84 -20.29,-2.25 -24.11,-11.76 -45.01,-112.01 -209.09,-90.89 -226.63,26.39 -2.78,18.55 -27.51,23.4 -37.04,7.12 -40.02,-68.42 -110.44,-76.38 -158.6,-62.41z" id="id_137" style="fill: rgb(23, 201, 237);"></path>
  <path class="fil1" d="M1277.03 1277.62c-175.87,102.52 -233.65,83.42 -301.44,42.54 -33.16,-20 -64.52,-38.94 -132.39,-26.78 -130.81,95.11 -202.33,57.99 -271.49,22.1 -46.57,-24.17 -94.71,-49.15 -167.52,-37.86 -91.5,53.41 -149.37,74.52 -192.76,76.88 -73.72,5.33 -101.19,-48.89 -169.53,-61.89l0 141.24c113.72,22.17 104.6,131.17 345.31,-10.19 2.08,-1.22 4.39,-2.06 6.78,-2.47 206.19,-35.3 228.8,167.98 429.15,19.73 2.41,-1.78 5.17,-3 8.1,-3.57 210.84,-40.84 136.11,158.22 428.81,-13.7 2.08,-1.22 4.39,-2.06 6.78,-2.47 192.39,-32.91 231.07,140.85 397.94,41.19l0 -136.73c-171.31,87.11 -223.57,-73.49 -387.74,-48.02z" id="id_138" style="fill: rgb(26, 202, 237);"></path>
  <path class="fil4" d="M1277.04 1460.01c-175.91,102.54 -233.67,83.41 -301.44,42.54 -33.18,-20.02 -64.53,-38.97 -132.39,-26.79 -61.75,44.98 -110.3,60.41 -151.61,60.41 -46.2,0.02 -83.37,-19.29 -119.89,-38.24 -46.56,-24.17 -94.61,-49.11 -167.52,-37.86 -189.54,110.39 -248.38,75.28 -305.29,41.33 -17.93,-10.71 -35.11,-20.96 -57,-26.56l0 191.72 1622.87 0 0 -158.52c-171.31,87.1 -223.59,-73.5 -387.73,-48.02z" id="id_139" style="fill: rgb(95, 213, 237);"></path>
 </g>
</svg>